<?xml version="1.0" encoding="UTF-8"?>
<svg id="Camada_1" data-name="Camada 1" xmlns="http://www.w3.org/2000/svg" viewBox="0 0 1920 1080">
  <defs>
    <style>
      .cls-1 {
        fill: #0a3062;
      }

      .cls-2 {
        fill: none;
      }

      .cls-3 {
        fill: #0d68c9;
      }

      .cls-4 {
        fill: #0c4b94;
      }

      .cls-5 {
        fill: #74726e;
      }
    </style>
  </defs>
  <g>
    <path class="cls-1" d="M435.05,351.87c13.72-.61,29.9,1.81,42.51,7.25,1.89.82,12.03,5.53,11.63,7.31l-29.38,35.37c-6-1.93-11.54-5.02-17.75-6.41-41.68-9.3-67.46,33.67-46.81,68.89,22.98,39.18,68.8,27.75,106.29,34.45,26.94,4.82,52.53,18.96,65.78,43.54-7.27,11.93-20.31,19.94-33.53,23.87-8.32-13.91-22.32-21.75-37.87-25.26-30.94-6.98-64-2.21-94.38-13.65-94.34-35.53-67.43-170.89,33.5-175.37Z"/>
    <path class="cls-1" d="M473.23,487.11l-12.54-.77c-11.4-.7-22.99-2.37-33.79-6.15,3.48-16.61,12.97-32.52,21.68-47.04,13.59-22.68,29.42-43.51,48.33-61.95,15.21-14.84,59.77-47.73,62.2-67.94,1.59-13.2-7.25-17.57-19.23-16.2-25.14,2.89-46.25,44.32-52.2,66.12-12.18-4.85-24.68-9.67-38.03-9.9,16.18-45.43,54.07-96.38,108.31-91.22,18.79,1.79,34.85,15.08,39.65,33.39,13.78,52.5-49.03,96.95-79.89,130.12-19.22,20.66-37.62,43.54-44.5,71.55Z"/>
    <path class="cls-4" d="M548.28,397.43l-30.16,31.07c10.12,3.76,20.54,8.68,30.16,14.81,7.21-10.09,16.96-23.21,24.59-31.57-7.76-5.46-16.01-10.28-24.59-14.31Z"/>
    <path class="cls-3" d="M572.87,411.74c-7.63,8.35-17.38,21.48-24.59,31.57,22.43,14.28,40.49,35.11,40.16,63.2-.54,46.15-45.55,83.34-90.83,67.69-5.98-2.07-11.56-5.32-16.1-9.57-19.56,2.5-35.34,6.55-47.43,10.65,7.43,12.83,18,23.95,30.1,31.61,49.48,31.32,120.85,8.87,151.18-38.89,37.04-58.34,7.6-121-42.48-156.26Z"/>
    <path class="cls-4" d="M470.93,545.73c-16-.86-32.2-1.11-47.88-4.6.93,11.89,4.92,23.59,11.04,34.15,12.09-4.1,27.87-8.15,47.43-10.65-5.33-4.99-9.23-11.37-10.59-18.9Z"/>
    <path class="cls-2" d="M501.18,730.75c-5.29,1.54-5.32,18.45,2.07,17.39,6.5-.93,6.06-19.75-2.07-17.39Z"/>
    <path class="cls-3" d="M516.74,686.99c-6.87,14.78-24.82,31.94-26.68,47.89-4.88,41.87,46.22,41.02,44.03,3.73-.67-11.42-7.61-21.71-6.82-33.48.95-14.12,18.46-35.67,25.22-49.34.56-1.12,1.09-2.26,1.62-3.4-8.77,2.84-19.21,5.42-30.63,6.68-.42,9.54-2.59,18.97-6.75,27.92ZM503.24,748.14c-7.39,1.05-7.36-15.85-2.07-17.39,8.12-2.36,8.57,16.46,2.07,17.39Z"/>
    <path class="cls-4" d="M519.65,630.17c2.9,9.49,4.26,19.25,3.84,28.9,11.42-1.26,21.86-3.84,30.63-6.68,4.77-10.29,8.36-21.14,11.18-32.11-14.61,5.49-29.9,9.68-45.64,9.89Z"/>
  </g>
  <path class="cls-3" d="M779.34,313.98h17.45v.92c-2.65.08-4.49.64-5.51,1.68-1.02,1.04-1.53,3.23-1.53,6.58v82.09l-71.93-76.59v66.68c0,2.12.16,3.69.49,4.71s.8,1.71,1.41,2.08c.61.37,2.14.73,4.59,1.1v.92h-17.32v-.92c3.1,0,5.03-.55,5.79-1.65.76-1.1,1.13-3.73,1.13-7.89v-60.99c0-5.34-.75-9.71-2.23-13.09-1.49-3.38-4.93-4.96-10.32-4.71v-.92h16.96l67.58,71.96v-63.64c0-3.43-.61-5.52-1.84-6.27-1.22-.75-2.8-1.13-4.71-1.13v-.92Z"/>
  <path class="cls-3" d="M855.67,312.63c12.65,0,22.99,3.85,31.04,11.54,8.04,7.69,12.06,17.29,12.06,28.8,0,14.81-4.65,27.28-13.96,37.4-9.3,10.12-21.65,15.18-37.04,15.18-12.49,0-22.71-4.08-30.67-12.24-7.96-8.16-11.94-17.96-11.94-29.38,0-7.71,1.92-15.63,5.76-23.75,3.83-8.12,9.61-14.74,17.32-19.86,7.71-5.12,16.86-7.68,27.43-7.68ZM855.3,400.78c6.2,0,12.32-1.66,18.36-4.99,6.04-3.33,10.79-7.91,14.26-13.74,3.47-5.84,5.2-11.83,5.2-18,0-8.73-2.34-16.67-7.01-23.81-4.67-7.14-10.73-12.73-18.18-16.77-7.45-4.04-14.34-6.06-20.66-6.06-8.94,0-17.05,3.37-24.33,10.1-7.28,6.73-10.93,15.1-10.93,25.1,0,12.77,4.45,24,13.35,33.67,8.9,9.67,18.87,14.51,29.93,14.51ZM852.61,288.82h11.02l-18.55,18.92h-2.88l10.41-18.92Z"/>
  <path class="cls-3" d="M927.31,315.02v-1.04h56.68v12.43h-.92c-1.22-4.61-2.25-7.33-3.09-8.14-.84-.82-2.89-1.22-6.15-1.22h-29.75v40.46h27.61c2.73,0,4.47-.25,5.2-.77.74-.51,1.12-1.25,1.16-2.23h.92v8.51h-.92c-.2-1.18-.68-1.98-1.44-2.39-.76-.41-2.15-.61-4.19-.61h-28.34v27.85c0,4.2.39,7.23,1.16,9.09.78,1.86,2.01,3.02,3.7,3.49,1.69.47,4.25.7,7.67.7h15.89c5.05,0,8.28-.17,9.69-.52s2.6-1.03,3.58-2.07c.98-1.03,1.73-3.29,2.26-6.78h.92v12.37h-61.64v-.92c2.08-.12,3.66-.52,4.74-1.19,1.08-.67,1.62-2.42,1.62-5.23v-72.8c0-3.3-.29-5.63-.86-6.97-.57-1.35-2.41-2.02-5.51-2.02Z"/>
  <path class="cls-3" d="M1077.68,313.98h14.23v.92c-4.81.24-7.21,2.76-7.21,7.53,0,1.02.12,2.43.37,4.23l9.48,68.31c.57,3.4,1.22,5.58,1.93,6.53.71.95,2.19,1.53,4.44,1.73v.92h-20.26v-.92c2.7.08,4.05-1.22,4.05-3.89,0-.61-.12-1.8-.37-3.59l-9.26-66.22-32.32,74.62h-.61l-32.51-74.5-9.14,66.6c-.17,1.01-.25,2.17-.25,3.46,0,2.35,1.38,3.52,4.13,3.52v.92h-13.77v-.92c2.08,0,3.42-.25,4.01-.77.59-.51,1.05-1.33,1.38-2.45.33-1.12.57-2.38.74-3.76l10.31-72.84c-1.68-4.04-3.36-6.47-5.04-7.29-1.68-.82-3.29-1.22-4.85-1.22v-.92h17l31.71,73.75,31.81-73.75Z"/>
  <path class="cls-1" d="M702.34,467.54v-1.66h74.77c19.02,0,34.05,1.49,45.07,4.48,11.02,2.99,20.63,7.69,28.81,14.1,8.19,6.42,14.67,14.62,19.47,24.61,4.79,9.99,7.19,21.14,7.19,33.46s-2.49,23.54-7.47,35.01c-4.98,11.47-11.74,21.35-20.3,29.64-8.55,8.29-17.57,13.97-27.04,17.03-9.47,3.06-24.13,4.59-43.96,4.59h-76.54v-1.66h1.99c3.98,0,6.6-1.6,7.85-4.81,1.25-3.2,1.88-9.01,1.88-17.41v-118.6c0-8.84-.76-14.18-2.27-16.03-1.51-1.84-4.67-2.76-9.46-2.76ZM757.86,469.31h-25v126.42c0,7.96,1.34,13.88,4.04,17.75,2.69,3.87,7.28,6.68,13.77,8.41,6.49,1.73,15.23,2.6,26.21,2.6,30.53,0,51.97-7.83,64.32-23.5,12.35-15.67,18.53-32.76,18.53-51.27,0-21.75-8.46-40.59-25.38-56.52-16.92-15.93-42.42-23.89-76.48-23.89Z"/>
  <path class="cls-1" d="M889.48,524.39l-.66-.88c8.11-5.97,13.38-11.96,15.82-17.97,2.43-6.01,3.65-11.12,3.65-15.32,0-2.88-.85-4.31-2.54-4.31-.29,0-.96.15-1.99.44-1.03.3-1.95.44-2.77.44-3.25,0-6.05-1.11-8.4-3.32-2.36-2.21-3.54-4.87-3.54-7.96s1.12-5.97,3.37-8.41c2.25-2.43,5.29-3.65,9.13-3.65,4.57,0,8.53,1.95,11.89,5.86,3.35,3.91,5.03,9.36,5.03,16.37,0,7.82-2.14,14.8-6.42,20.96-4.28,6.16-11.8,12.07-22.56,17.75Z"/>
  <path class="cls-1" d="M1017.7,553.82h-47.82l-24.66,61.5c-1.7,4.42-2.54,7.15-2.54,8.19,0,2.43,1.81,3.65,5.42,3.65v1.66h-24.22v-1.66c3.24,0,5.97-.79,8.18-2.38,2.21-1.59,4.64-5.7,7.29-12.34l59.05-148.98h2.93l58.09,143.88c0,.74,1.49,4.23,4.47,10.46,2.98,6.24,7.52,9.35,13.62,9.35v1.66h-38.05v-1.66c3.46,0,5.2-1.36,5.2-4.09,0-1.84-.85-4.79-2.54-8.85-.3-.29-.55-.77-.77-1.44-.15-.74-.26-1.11-.33-1.11l-23.31-57.85ZM971.45,549.28h44.06l-22.01-55.52-22.05,55.52ZM1001.97,420.43h19.91l-33.51,34.18h-5.2l18.8-34.18Z"/>
  <path class="cls-1" d="M1246.96,627.15v1.66h-65.7c-12.61,0-23.65-1.36-33.13-4.09-9.48-2.73-19.13-7.91-28.98-15.54-9.84-7.63-17.81-17.12-23.89-28.48-6.08-11.35-9.13-22.97-9.13-34.84,0-12.98,3.82-25.92,11.45-38.82,7.63-12.9,18.49-23.39,32.57-31.47,14.08-8.07,30.05-12.11,47.89-12.11,16,0,32.92,3.54,50.77,10.62l6.75,18.8h-1.62c-5.68-7.23-13.43-13.22-23.27-17.97-9.84-4.76-20.8-7.13-32.89-7.13-21,0-38.21,7.91-51.62,23.72-13.41,15.82-20.12,35.45-20.12,58.9,0,9.73,1.11,18.42,3.32,26.05,2.21,7.63,6.36,15.15,12.44,22.56,6.08,7.41,12.61,12.87,19.58,16.37,6.97,3.5,14.76,5.94,23.39,7.3,8.63,1.37,15.48,1.97,20.57,1.82l8.74-.22c9.88-.37,16.06-1.29,18.53-2.76,2.47-1.47,3.7-5.23,3.7-11.28v-24.66c0-4.79-1-8.02-2.99-9.68-1.99-1.66-4.83-2.38-8.52-2.16v-1.66h42.14v1.66c-4.72,0-7.87.92-9.46,2.76-1.58,1.84-2.38,5.37-2.38,10.6v25.61c0,5.15.68,8.85,2.04,11.09,1.36,2.24,3.85,3.37,7.47,3.37h2.32Z"/>
  <path class="cls-1" d="M1411.31,628.81h-30.86v-25.11c-15.69,17.48-34.4,26.21-56.13,26.21-16.13,0-28.93-4.53-38.4-13.6-9.46-9.07-14.2-21.6-14.2-37.61v-97.55c0-5.9-.7-9.64-2.1-11.23-1.4-1.58-4.68-2.38-9.84-2.38v-1.66h43.25v1.66c-4.57,0-7.8.72-9.68,2.16-1.88,1.44-2.82,4.85-2.82,10.23v89.48c0,18.73,4.38,32.09,13.14,40.09,8.76,8,18.74,12,29.94,12,17.6,0,33.21-7.93,46.84-23.78v-110.27c0-9.66-.85-15.39-2.54-17.2-1.7-1.81-4.35-2.71-7.96-2.71h-1.55v-1.66h42.91v1.66c-5.31.29-8.65,1.18-10.01,2.65-1.36,1.47-2.04,4.27-2.04,8.4v132.63c0,5.23.26,8.66.77,10.28.52,1.62,1.57,2.97,3.15,4.04,1.58,1.07,4.29,1.6,8.13,1.6v1.66Z"/>
  <path class="cls-1" d="M1515.53,553.82h-47.81l-24.66,61.5c-1.7,4.42-2.54,7.15-2.54,8.19,0,2.43,1.81,3.65,5.42,3.65v1.66h-24.22v-1.66c3.24,0,5.97-.79,8.18-2.38,2.21-1.59,4.64-5.7,7.29-12.34l59.05-148.98h2.93l58.09,143.88c0,.74,1.49,4.23,4.47,10.46,2.98,6.24,7.52,9.35,13.62,9.35v1.66h-38.05v-1.66c3.46,0,5.2-1.36,5.2-4.09,0-1.84-.85-4.79-2.54-8.85-.3-.29-.55-.77-.77-1.44-.15-.74-.26-1.11-.33-1.11l-23.31-57.85ZM1469.28,549.28h44.06l-22.01-55.52-22.05,55.52Z"/>
  <g>
    <path class="cls-5" d="M734.57,692.51h-5.9c-.23-1.26-.65-2.37-1.27-3.33-.62-.96-1.37-1.77-2.27-2.44-.9-.67-1.89-1.17-3-1.51-1.1-.34-2.27-.51-3.51-.51-2.23,0-4.22.56-5.98,1.68s-3.14,2.77-4.16,4.93c-1.01,2.17-1.52,4.81-1.52,7.94s.51,5.81,1.52,7.98c1.01,2.17,2.4,3.81,4.17,4.91,1.76,1.11,3.75,1.66,5.95,1.66,1.22,0,2.38-.17,3.49-.5,1.1-.33,2.1-.83,3-1.48.89-.65,1.65-1.46,2.28-2.41.62-.95,1.05-2.04,1.29-3.28l5.9.02c-.32,1.9-.92,3.65-1.82,5.24-.9,1.59-2.05,2.97-3.46,4.12-1.41,1.15-3.01,2.04-4.81,2.67-1.8.63-3.77.95-5.9.95-3.35,0-6.34-.8-8.96-2.39-2.62-1.59-4.68-3.88-6.19-6.85s-2.26-6.52-2.26-10.64.76-7.68,2.27-10.65c1.51-2.97,3.58-5.25,6.2-6.84,2.62-1.59,5.6-2.39,8.94-2.39,2.05,0,3.97.29,5.75.88s3.39,1.44,4.81,2.57c1.42,1.13,2.6,2.5,3.53,4.12s1.56,3.47,1.89,5.55Z"/>
    <path class="cls-5" d="M753.34,719.22c-2.72,0-5.1-.62-7.13-1.87s-3.6-2.99-4.72-5.23-1.68-4.86-1.68-7.86.56-5.64,1.68-7.9c1.12-2.25,2.7-4.01,4.72-5.25s4.4-1.87,7.13-1.87,5.1.62,7.12,1.87,3.6,3,4.73,5.25c1.12,2.26,1.68,4.89,1.68,7.9s-.56,5.62-1.68,7.86c-1.12,2.24-2.7,3.99-4.73,5.23s-4.4,1.87-7.12,1.87ZM753.36,714.47c1.76,0,3.23-.47,4.38-1.4,1.16-.93,2.02-2.17,2.58-3.72.56-1.55.84-3.26.84-5.12s-.28-3.56-.84-5.11c-.56-1.56-1.42-2.81-2.58-3.75-1.16-.95-2.62-1.42-4.38-1.42s-3.25.47-4.41,1.42-2.03,2.2-2.59,3.75-.84,3.26-.84,5.11.28,3.57.84,5.12,1.42,2.79,2.59,3.72c1.17.93,2.64,1.4,4.41,1.4Z"/>
    <path class="cls-5" d="M778.82,701.39v17.24h-5.65v-29.03h5.42v4.73h.36c.67-1.54,1.72-2.77,3.15-3.7,1.43-.93,3.23-1.4,5.41-1.4,1.98,0,3.71.41,5.2,1.24,1.49.83,2.64,2.05,3.46,3.68.82,1.63,1.23,3.64,1.23,6.03v18.46h-5.65v-17.78c0-2.1-.55-3.75-1.64-4.94-1.1-1.19-2.6-1.79-4.52-1.79-1.31,0-2.47.28-3.49.85-1.01.57-1.81,1.4-2.4,2.49-.59,1.09-.88,2.4-.88,3.94Z"/>
    <path class="cls-5" d="M826.71,696.69l-5.12.91c-.21-.65-.55-1.28-1.01-1.87-.46-.59-1.08-1.08-1.86-1.46-.78-.38-1.76-.57-2.93-.57-1.6,0-2.94.36-4.01,1.07-1.07.71-1.61,1.63-1.61,2.75,0,.97.36,1.75,1.08,2.34s1.88,1.08,3.48,1.46l4.61,1.06c2.67.62,4.66,1.57,5.97,2.85,1.31,1.29,1.97,2.95,1.97,5.01,0,1.74-.5,3.29-1.5,4.64-1,1.35-2.39,2.42-4.18,3.18-1.78.77-3.85,1.15-6.19,1.15-3.25,0-5.9-.7-7.96-2.09-2.05-1.39-3.31-3.37-3.78-5.94l5.46-.83c.34,1.42,1.04,2.5,2.1,3.22s2.44,1.09,4.14,1.09c1.85,0,3.33-.39,4.44-1.16,1.11-.77,1.66-1.72,1.66-2.84,0-.91-.34-1.67-1.01-2.29s-1.7-1.08-3.09-1.4l-4.91-1.08c-2.71-.62-4.71-1.6-6-2.95-1.29-1.35-1.94-3.06-1.94-5.12,0-1.71.48-3.21,1.44-4.5.96-1.28,2.28-2.29,3.97-3.01,1.69-.72,3.62-1.09,5.8-1.09,3.14,0,5.61.68,7.41,2.03,1.8,1.35,2.99,3.17,3.57,5.43Z"/>
    <path class="cls-5" d="M851.86,706.59v-16.99h5.67v29.03h-5.56v-5.03h-.3c-.67,1.55-1.74,2.84-3.2,3.86-1.47,1.03-3.29,1.54-5.47,1.54-1.87,0-3.51-.41-4.94-1.24-1.43-.83-2.55-2.05-3.36-3.68-.81-1.63-1.22-3.64-1.22-6.03v-18.46h5.65v17.78c0,1.98.55,3.55,1.64,4.73,1.1,1.17,2.52,1.76,4.27,1.76,1.06,0,2.11-.26,3.17-.79,1.05-.53,1.93-1.33,2.63-2.4.7-1.07,1.04-2.43,1.03-4.08Z"/>
    <path class="cls-5" d="M870.76,679.92v38.71h-5.65v-38.71h5.65Z"/>
    <path class="cls-5" d="M891.91,689.6v4.54h-15.86v-4.54h15.86ZM880.3,682.65h5.65v27.46c0,1.1.16,1.92.49,2.47.33.55.75.92,1.28,1.12s1.09.29,1.71.29c.45,0,.85-.03,1.19-.09.34-.06.61-.11.79-.15l1.02,4.67c-.33.13-.79.26-1.4.39-.6.13-1.36.2-2.27.22-1.49.03-2.87-.24-4.16-.79-1.28-.55-2.32-1.41-3.12-2.57-.79-1.16-1.19-2.61-1.19-4.37v-28.63Z"/>
    <path class="cls-5" d="M910.37,719.22c-2.72,0-5.1-.62-7.13-1.87s-3.6-2.99-4.72-5.23-1.68-4.86-1.68-7.86.56-5.64,1.68-7.9c1.12-2.25,2.7-4.01,4.72-5.25s4.4-1.87,7.13-1.87,5.1.62,7.12,1.87,3.6,3,4.73,5.25c1.12,2.26,1.68,4.89,1.68,7.9s-.56,5.62-1.68,7.86c-1.12,2.24-2.7,3.99-4.73,5.23s-4.4,1.87-7.12,1.87ZM910.39,714.47c1.76,0,3.23-.47,4.38-1.4,1.16-.93,2.02-2.17,2.58-3.72.56-1.55.84-3.26.84-5.12s-.28-3.56-.84-5.11c-.56-1.56-1.42-2.81-2.58-3.75-1.16-.95-2.62-1.42-4.38-1.42s-3.25.47-4.41,1.42-2.03,2.2-2.59,3.75-.84,3.26-.84,5.11.28,3.57.84,5.12,1.42,2.79,2.59,3.72c1.17.93,2.64,1.4,4.41,1.4Z"/>
    <path class="cls-5" d="M930.19,718.63v-29.03h5.46v4.61h.3c.53-1.56,1.46-2.79,2.81-3.7,1.34-.9,2.86-1.35,4.57-1.35.35,0,.77.01,1.26.04.49.03.87.06,1.14.09v5.41c-.23-.06-.63-.13-1.21-.22-.58-.08-1.16-.12-1.74-.12-1.34,0-2.52.28-3.56.84-1.04.56-1.86,1.34-2.47,2.32-.6.99-.91,2.11-.91,3.37v17.73h-5.65Z"/>
    <path class="cls-5" d="M953.5,685.12c-.98,0-1.82-.33-2.52-.99-.7-.66-1.05-1.45-1.05-2.37s.35-1.73,1.05-2.39c.7-.66,1.54-.99,2.52-.99s1.82.33,2.52.99c.7.66,1.05,1.45,1.05,2.37s-.35,1.73-1.05,2.39c-.7.66-1.54.99-2.52.99ZM950.64,718.63v-29.03h5.65v29.03h-5.65Z"/>
    <path class="cls-5" d="M972.34,719.27c-1.84,0-3.5-.34-4.99-1.03-1.49-.69-2.66-1.69-3.52-3-.86-1.31-1.3-2.92-1.3-4.82,0-1.64.31-2.99.95-4.04.63-1.06,1.48-1.9,2.55-2.51,1.07-.62,2.27-1.08,3.59-1.4,1.32-.31,2.67-.55,4.04-.72,1.74-.2,3.15-.37,4.23-.5s1.87-.35,2.36-.65c.49-.3.74-.79.74-1.47v-.13c0-1.65-.46-2.93-1.39-3.84-.93-.91-2.3-1.36-4.13-1.36s-3.4.42-4.49,1.26-1.84,1.77-2.26,2.79l-5.31-1.21c.63-1.76,1.55-3.19,2.77-4.28,1.22-1.09,2.62-1.88,4.2-2.38,1.59-.5,3.26-.75,5.01-.75,1.16,0,2.39.14,3.7.41s2.53.77,3.67,1.48,2.08,1.74,2.81,3.07c.73,1.33,1.1,3.05,1.1,5.17v19.28h-5.52v-3.97h-.23c-.37.73-.91,1.45-1.64,2.15-.73.71-1.67,1.29-2.82,1.76-1.15.47-2.52.7-4.12.7ZM973.57,714.74c1.56,0,2.9-.31,4.02-.93,1.12-.62,1.97-1.43,2.55-2.43.59-1,.88-2.08.88-3.22v-3.74c-.2.2-.59.39-1.16.56-.57.17-1.23.32-1.96.43-.73.12-1.44.23-2.13.32-.69.09-1.27.17-1.74.24-1.1.14-2.09.37-3,.7-.9.33-1.62.8-2.15,1.41s-.8,1.42-.8,2.43c0,1.4.52,2.45,1.55,3.17s2.35,1.07,3.95,1.07Z"/>
    <path class="cls-5" d="M1020.8,719.22c-2.86,0-5.32-.61-7.38-1.84-2.06-1.23-3.65-2.96-4.76-5.2-1.11-2.24-1.67-4.86-1.67-7.87s.56-5.59,1.67-7.86c1.12-2.27,2.68-4.04,4.69-5.31,2.01-1.27,4.36-1.91,7.06-1.91,1.64,0,3.23.27,4.76.81,1.54.54,2.92,1.39,4.14,2.55,1.22,1.16,2.19,2.66,2.89,4.51.71,1.85,1.06,4.09,1.06,6.72v2h-23.08v-4.23h17.54c0-1.49-.3-2.81-.91-3.96s-1.45-2.06-2.54-2.73c-1.09-.67-2.37-1-3.83-1-1.59,0-2.97.39-4.15,1.16-1.18.77-2.09,1.78-2.72,3.02-.64,1.24-.95,2.59-.95,4.03v3.31c0,1.94.34,3.59,1.03,4.95.69,1.36,1.65,2.4,2.88,3.11,1.23.71,2.68,1.07,4.33,1.07,1.07,0,2.05-.15,2.93-.46s1.64-.77,2.29-1.39c.64-.62,1.13-1.38,1.47-2.29l5.35.96c-.43,1.58-1.19,2.95-2.3,4.13-1.1,1.18-2.48,2.09-4.14,2.74-1.66.65-3.54.97-5.66.97Z"/>
    <path class="cls-5" d="M1039.55,718.63v-29.03h5.42v4.73h.36c.6-1.6,1.59-2.85,2.97-3.75,1.37-.9,3.02-1.35,4.93-1.35s3.57.45,4.89,1.36c1.32.91,2.29,2.15,2.92,3.74h.3c.69-1.55,1.8-2.79,3.31-3.71,1.51-.93,3.31-1.39,5.41-1.39,2.63,0,4.78.83,6.45,2.48,1.67,1.65,2.5,4.14,2.5,7.47v19.47h-5.65v-18.94c0-1.97-.54-3.39-1.61-4.27-1.07-.88-2.35-1.32-3.84-1.32-1.84,0-3.27.56-4.29,1.69s-1.53,2.57-1.53,4.34v18.5h-5.63v-19.3c0-1.58-.49-2.84-1.47-3.8-.98-.96-2.26-1.44-3.84-1.44-1.07,0-2.06.28-2.96.84-.9.56-1.63,1.34-2.17,2.33-.55,1-.82,2.15-.82,3.46v17.9h-5.65Z"/>
    <path class="cls-5" d="M1106.96,679.92v38.71h-5.84v-38.71h5.84Z"/>
    <path class="cls-5" d="M1115.01,718.63v-29.03h5.42v4.73h.36c.6-1.6,1.59-2.85,2.97-3.75,1.37-.9,3.02-1.35,4.93-1.35s3.57.45,4.89,1.36c1.32.91,2.29,2.15,2.92,3.74h.3c.69-1.55,1.8-2.79,3.31-3.71,1.51-.93,3.31-1.39,5.41-1.39,2.63,0,4.78.83,6.45,2.48,1.67,1.65,2.5,4.14,2.5,7.47v19.47h-5.65v-18.94c0-1.97-.54-3.39-1.61-4.27-1.07-.88-2.35-1.32-3.84-1.32-1.84,0-3.27.56-4.29,1.69s-1.53,2.57-1.53,4.34v18.5h-5.63v-19.3c0-1.58-.49-2.84-1.47-3.8-.98-.96-2.26-1.44-3.84-1.44-1.07,0-2.06.28-2.96.84-.9.56-1.63,1.34-2.17,2.33-.55,1-.82,2.15-.82,3.46v17.9h-5.65Z"/>
    <path class="cls-5" d="M1162.03,729.52v-39.91h5.52v4.71h.47c.33-.6.8-1.3,1.42-2.1.62-.79,1.47-1.49,2.57-2.09,1.1-.6,2.54-.9,4.35-.9,2.34,0,4.43.59,6.27,1.78,1.84,1.18,3.29,2.89,4.34,5.12,1.05,2.23,1.58,4.91,1.58,8.05s-.52,5.82-1.57,8.06c-1.05,2.24-2.48,3.96-4.31,5.16-1.83,1.2-3.91,1.81-6.25,1.81-1.76,0-3.2-.3-4.32-.89-1.12-.59-1.99-1.29-2.62-2.08-.63-.79-1.12-1.5-1.46-2.12h-.34v15.4h-5.65ZM1167.57,704.12c0,2.04.3,3.83.89,5.37.59,1.54,1.45,2.74,2.57,3.6,1.12.86,2.49,1.29,4.12,1.29s3.1-.45,4.23-1.35c1.13-.9,1.99-2.13,2.58-3.68.59-1.55.88-3.29.88-5.23s-.29-3.64-.86-5.16c-.57-1.52-1.43-2.73-2.57-3.61-1.14-.88-2.56-1.32-4.26-1.32s-3.02.42-4.15,1.27-1.98,2.02-2.56,3.53c-.58,1.51-.87,3.28-.87,5.29Z"/>
    <path class="cls-5" d="M1207.39,719.22c-2.86,0-5.32-.61-7.38-1.84-2.06-1.23-3.65-2.96-4.76-5.2-1.11-2.24-1.67-4.86-1.67-7.87s.56-5.59,1.67-7.86c1.12-2.27,2.68-4.04,4.69-5.31,2.01-1.27,4.36-1.91,7.06-1.91,1.64,0,3.23.27,4.76.81,1.54.54,2.92,1.39,4.14,2.55,1.22,1.16,2.19,2.66,2.89,4.51.71,1.85,1.06,4.09,1.06,6.72v2h-23.08v-4.23h17.54c0-1.49-.3-2.81-.91-3.96s-1.45-2.06-2.54-2.73c-1.09-.67-2.37-1-3.83-1-1.59,0-2.97.39-4.15,1.16-1.18.77-2.09,1.78-2.72,3.02-.64,1.24-.95,2.59-.95,4.03v3.31c0,1.94.34,3.59,1.03,4.95.69,1.36,1.65,2.4,2.88,3.11,1.23.71,2.68,1.07,4.33,1.07,1.07,0,2.05-.15,2.93-.46s1.64-.77,2.29-1.39c.64-.62,1.13-1.38,1.47-2.29l5.35.96c-.43,1.58-1.19,2.95-2.3,4.13-1.1,1.18-2.48,2.09-4.14,2.74-1.66.65-3.54.97-5.66.97Z"/>
    <path class="cls-5" d="M1226.13,718.63v-29.03h5.46v4.61h.3c.53-1.56,1.46-2.79,2.81-3.7,1.34-.9,2.86-1.35,4.56-1.35.35,0,.77.01,1.26.04.48.03.87.06,1.14.09v5.41c-.23-.06-.63-.13-1.21-.22-.58-.08-1.16-.12-1.74-.12-1.34,0-2.52.28-3.56.84-1.04.56-1.86,1.34-2.47,2.32-.6.99-.91,2.11-.91,3.37v17.73h-5.65Z"/>
    <path class="cls-5" d="M1246.58,718.63v-29.03h5.42v4.73h.36c.6-1.6,1.59-2.85,2.97-3.75,1.37-.9,3.02-1.35,4.93-1.35s3.57.45,4.89,1.36c1.32.91,2.29,2.15,2.92,3.74h.3c.69-1.55,1.8-2.79,3.31-3.71,1.51-.93,3.31-1.39,5.41-1.39,2.63,0,4.78.83,6.45,2.48,1.67,1.65,2.5,4.14,2.5,7.47v19.47h-5.65v-18.94c0-1.97-.54-3.39-1.61-4.27-1.07-.88-2.35-1.32-3.84-1.32-1.84,0-3.27.56-4.29,1.69s-1.53,2.57-1.53,4.34v18.5h-5.63v-19.3c0-1.58-.49-2.84-1.47-3.8-.98-.96-2.26-1.44-3.84-1.44-1.07,0-2.06.28-2.96.84-.9.56-1.63,1.34-2.17,2.33-.55,1-.82,2.15-.82,3.46v17.9h-5.65Z"/>
    <path class="cls-5" d="M1306.12,719.22c-2.86,0-5.32-.61-7.38-1.84-2.06-1.23-3.65-2.96-4.76-5.2-1.11-2.24-1.67-4.86-1.67-7.87s.56-5.59,1.67-7.86c1.12-2.27,2.68-4.04,4.69-5.31,2.01-1.27,4.36-1.91,7.06-1.91,1.64,0,3.23.27,4.76.81,1.54.54,2.92,1.39,4.14,2.55,1.22,1.16,2.19,2.66,2.89,4.51.71,1.85,1.06,4.09,1.06,6.72v2h-23.08v-4.23h17.54c0-1.49-.3-2.81-.91-3.96s-1.45-2.06-2.54-2.73c-1.09-.67-2.37-1-3.83-1-1.59,0-2.97.39-4.15,1.16-1.18.77-2.09,1.78-2.72,3.02-.64,1.24-.95,2.59-.95,4.03v3.31c0,1.94.34,3.59,1.03,4.95.69,1.36,1.65,2.4,2.88,3.11,1.23.71,2.68,1.07,4.33,1.07,1.07,0,2.05-.15,2.93-.46s1.64-.77,2.29-1.39c.64-.62,1.13-1.38,1.47-2.29l5.35.96c-.43,1.58-1.19,2.95-2.3,4.13-1.1,1.18-2.48,2.09-4.14,2.74-1.66.65-3.54.97-5.66.97Z"/>
    <path class="cls-5" d="M1333.31,719.27c-1.84,0-3.5-.34-4.99-1.03-1.49-.69-2.66-1.69-3.52-3-.86-1.31-1.3-2.92-1.3-4.82,0-1.64.31-2.99.95-4.04.63-1.06,1.48-1.9,2.55-2.51,1.07-.62,2.27-1.08,3.59-1.4,1.32-.31,2.67-.55,4.04-.72,1.74-.2,3.15-.37,4.23-.5s1.87-.35,2.36-.65c.49-.3.74-.79.74-1.47v-.13c0-1.65-.46-2.93-1.39-3.84-.93-.91-2.3-1.36-4.13-1.36s-3.4.42-4.49,1.26-1.84,1.77-2.26,2.79l-5.31-1.21c.63-1.76,1.55-3.19,2.77-4.28,1.22-1.09,2.62-1.88,4.2-2.38,1.59-.5,3.26-.75,5.01-.75,1.16,0,2.39.14,3.7.41s2.53.77,3.67,1.48,2.08,1.74,2.81,3.07c.73,1.33,1.1,3.05,1.1,5.17v19.28h-5.52v-3.97h-.23c-.37.73-.91,1.45-1.64,2.15-.73.71-1.67,1.29-2.82,1.76-1.15.47-2.52.7-4.12.7ZM1334.54,714.74c1.56,0,2.9-.31,4.02-.93,1.12-.62,1.97-1.43,2.55-2.43.59-1,.88-2.08.88-3.22v-3.74c-.2.2-.59.39-1.16.56-.57.17-1.23.32-1.96.43-.73.12-1.44.23-2.13.32-.69.09-1.27.17-1.74.24-1.1.14-2.09.37-3,.7-.9.33-1.62.8-2.15,1.41s-.8,1.42-.8,2.43c0,1.4.52,2.45,1.55,3.17s2.35,1.07,3.95,1.07Z"/>
    <path class="cls-5" d="M1355.61,718.63v-38.71h5.65v14.38h.34c.33-.6.8-1.3,1.42-2.1.62-.79,1.47-1.49,2.57-2.09,1.1-.6,2.54-.9,4.35-.9,2.34,0,4.43.59,6.27,1.78,1.84,1.18,3.29,2.89,4.34,5.12,1.05,2.23,1.58,4.91,1.58,8.05s-.52,5.82-1.57,8.06c-1.05,2.24-2.48,3.96-4.31,5.16-1.83,1.2-3.91,1.81-6.26,1.81-1.76,0-3.2-.3-4.32-.89-1.12-.59-1.99-1.29-2.62-2.08-.63-.79-1.12-1.5-1.46-2.12h-.47v4.52h-5.52ZM1361.15,704.12c0,2.04.3,3.83.89,5.37.59,1.54,1.45,2.74,2.57,3.6,1.12.86,2.49,1.29,4.12,1.29s3.1-.45,4.23-1.35c1.13-.9,1.99-2.13,2.58-3.68s.88-3.29.88-5.23-.29-3.64-.86-5.16c-.57-1.52-1.43-2.73-2.57-3.61-1.14-.88-2.56-1.32-4.26-1.32s-3.02.42-4.15,1.27-1.98,2.02-2.56,3.53c-.58,1.51-.87,3.28-.87,5.29Z"/>
    <path class="cls-5" d="M1391.31,685.12c-.98,0-1.82-.33-2.52-.99-.7-.66-1.05-1.45-1.05-2.37s.35-1.73,1.05-2.39c.7-.66,1.54-.99,2.52-.99s1.82.33,2.52.99c.7.66,1.05,1.45,1.05,2.37s-.35,1.73-1.05,2.39c-.7.66-1.54.99-2.52.99ZM1388.46,718.63v-29.03h5.65v29.03h-5.65Z"/>
    <path class="cls-5" d="M1407.36,679.92v38.71h-5.65v-38.71h5.65Z"/>
    <path class="cls-5" d="M1417.81,685.12c-.98,0-1.82-.33-2.52-.99-.7-.66-1.05-1.45-1.05-2.37s.35-1.73,1.05-2.39c.7-.66,1.54-.99,2.52-.99s1.82.33,2.52.99c.7.66,1.05,1.45,1.05,2.37s-.35,1.73-1.05,2.39c-.7.66-1.54.99-2.52.99ZM1414.95,718.63v-29.03h5.65v29.03h-5.65Z"/>
    <path class="cls-5" d="M1427.6,718.63v-3.87l15.72-19.98v-.26h-15.21v-4.91h22.26v4.12l-15.12,19.73v.26h15.65v4.91h-23.3Z"/>
    <path class="cls-5" d="M1466,719.27c-1.84,0-3.5-.34-4.99-1.03-1.49-.69-2.66-1.69-3.52-3-.86-1.31-1.3-2.92-1.3-4.82,0-1.64.31-2.99.95-4.04.63-1.06,1.48-1.9,2.55-2.51,1.07-.62,2.27-1.08,3.59-1.4,1.32-.31,2.67-.55,4.04-.72,1.74-.2,3.15-.37,4.23-.5s1.87-.35,2.36-.65c.49-.3.74-.79.74-1.47v-.13c0-1.65-.46-2.93-1.39-3.84-.93-.91-2.3-1.36-4.13-1.36s-3.4.42-4.49,1.26-1.84,1.77-2.26,2.79l-5.31-1.21c.63-1.76,1.55-3.19,2.77-4.28,1.22-1.09,2.62-1.88,4.2-2.38,1.59-.5,3.26-.75,5.01-.75,1.16,0,2.39.14,3.7.41s2.53.77,3.67,1.48,2.08,1.74,2.81,3.07c.73,1.33,1.1,3.05,1.1,5.17v19.28h-5.52v-3.97h-.23c-.37.73-.91,1.45-1.64,2.15-.73.71-1.67,1.29-2.82,1.76-1.15.47-2.52.7-4.12.7ZM1467.23,714.74c1.56,0,2.9-.31,4.02-.93,1.12-.62,1.97-1.43,2.55-2.43.59-1,.88-2.08.88-3.22v-3.74c-.2.2-.59.39-1.16.56-.57.17-1.23.32-1.96.43-.73.12-1.44.23-2.13.32-.69.09-1.27.17-1.74.24-1.1.14-2.09.37-3,.7-.9.33-1.62.8-2.15,1.41s-.8,1.42-.8,2.43c0,1.4.52,2.45,1.55,3.17s2.35,1.07,3.95,1.07Z"/>
    <path class="cls-5" d="M1500.07,719.22c-2.81,0-5.23-.64-7.25-1.92-2.02-1.28-3.58-3.05-4.66-5.3s-1.63-4.84-1.63-7.75.55-5.55,1.66-7.81c1.11-2.26,2.67-4.03,4.69-5.3,2.02-1.27,4.39-1.91,7.13-1.91,2.2,0,4.17.41,5.9,1.22s3.12,1.95,4.19,3.41c1.06,1.46,1.7,3.17,1.9,5.12h-5.5c-.3-1.36-.99-2.53-2.07-3.52-1.08-.98-2.52-1.47-4.32-1.47-1.58,0-2.95.41-4.13,1.24-1.18.83-2.09,2-2.75,3.52-.66,1.52-.98,3.31-.98,5.38s.32,3.94.96,5.48,1.55,2.73,2.73,3.57,2.57,1.27,4.17,1.27c1.07,0,2.04-.2,2.92-.6s1.61-.97,2.21-1.71c.6-.74,1.02-1.64,1.26-2.68h5.5c-.2,1.88-.81,3.55-1.83,5.03s-2.38,2.63-4.09,3.48c-1.71.84-3.71,1.27-6,1.27ZM1498.03,718.48h3.7l-.3,1.55c1.1.18,2.05.62,2.87,1.32.82.71,1.23,1.77,1.23,3.19.01,1.7-.72,3.08-2.2,4.14-1.48,1.06-3.62,1.59-6.42,1.59l-.11-3.16c1.31,0,2.37-.19,3.18-.57.81-.38,1.23-.99,1.24-1.83.01-.84-.3-1.44-.94-1.78-.64-.34-1.65-.58-3.03-.72l.78-3.74Z"/>
    <path class="cls-5" d="M1526.51,719.27c-1.84,0-3.5-.34-4.99-1.03-1.49-.69-2.66-1.69-3.52-3-.86-1.31-1.3-2.92-1.3-4.82,0-1.64.31-2.99.95-4.04.63-1.06,1.48-1.9,2.55-2.51,1.07-.62,2.27-1.08,3.59-1.4,1.32-.31,2.67-.55,4.04-.72,1.74-.2,3.15-.37,4.23-.5s1.87-.35,2.36-.65c.49-.3.74-.79.74-1.47v-.13c0-1.65-.46-2.93-1.39-3.84-.93-.91-2.3-1.36-4.13-1.36s-3.4.42-4.49,1.26-1.84,1.77-2.26,2.79l-5.31-1.21c.63-1.76,1.55-3.19,2.77-4.28,1.22-1.09,2.62-1.88,4.2-2.38,1.59-.5,3.26-.75,5.01-.75,1.16,0,2.39.14,3.7.41s2.53.77,3.67,1.48,2.08,1.74,2.81,3.07c.73,1.33,1.1,3.05,1.1,5.17v19.28h-5.52v-3.97h-.23c-.37.73-.91,1.45-1.64,2.15-.73.71-1.67,1.29-2.82,1.76-1.15.47-2.52.7-4.12.7ZM1524.19,686.09l-3.8-.11c0-2.09.56-3.76,1.69-5.01s2.52-1.87,4.19-1.87c.77,0,1.44.13,2.02.39.58.26,1.12.55,1.63.89.51.33,1.02.63,1.53.89.51.26,1.08.39,1.71.39.73,0,1.33-.28,1.79-.83.46-.55.69-1.24.69-2.06l3.72.25c0,2.1-.57,3.76-1.7,4.96-1.13,1.2-2.53,1.81-4.18,1.82-.9,0-1.64-.13-2.22-.39s-1.11-.55-1.56-.89c-.45-.33-.92-.63-1.4-.9-.48-.26-1.05-.4-1.72-.4-.71,0-1.28.27-1.73.82-.45.55-.67,1.23-.67,2.05ZM1527.74,714.74c1.56,0,2.9-.31,4.02-.93,1.12-.62,1.97-1.43,2.55-2.43.59-1,.88-2.08.88-3.22v-3.74c-.2.2-.59.39-1.16.56-.57.17-1.23.32-1.96.43-.73.12-1.44.23-2.13.32-.69.09-1.27.17-1.74.24-1.1.14-2.09.37-3,.7-.9.33-1.62.8-2.15,1.41s-.8,1.42-.8,2.43c0,1.4.52,2.45,1.55,3.17s2.35,1.07,3.95,1.07Z"/>
    <path class="cls-5" d="M1560.59,719.22c-2.72,0-5.1-.62-7.13-1.87s-3.6-2.99-4.72-5.23-1.68-4.86-1.68-7.86.56-5.64,1.68-7.9c1.12-2.25,2.7-4.01,4.72-5.25s4.4-1.87,7.13-1.87,5.1.62,7.13,1.87c2.03,1.25,3.6,3,4.72,5.25,1.12,2.26,1.68,4.89,1.68,7.9s-.56,5.62-1.68,7.86-2.7,3.99-4.72,5.23c-2.03,1.25-4.4,1.87-7.13,1.87ZM1560.61,714.47c1.76,0,3.23-.47,4.38-1.4,1.16-.93,2.02-2.17,2.58-3.72s.84-3.26.84-5.12-.28-3.56-.84-5.11-1.42-2.81-2.58-3.75c-1.16-.95-2.62-1.42-4.38-1.42s-3.25.47-4.41,1.42c-1.17.95-2.03,2.2-2.59,3.75s-.84,3.26-.84,5.11.28,3.57.84,5.12,1.42,2.79,2.59,3.72c1.16.93,2.64,1.4,4.41,1.4Z"/>
  </g>
  <path class="cls-3" d="M1515.58,323.62c-7.49-4.07-14.43-6.1-20.79-6.1-8.99,0-17.16,3.39-24.49,10.17-7.33,6.78-11,15.2-11,25.26,0,12.86,4.48,24.15,13.43,33.88,8.95,9.73,18.99,14.6,30.13,14.6,6.24,0,12.4-1.67,18.48-5.02,6.08-3.35,10.86-7.96,14.35-13.83,3.49-5.87,5.24-11.91,5.24-18.11,0-8.79-2.35-16.78-7.06-23.97-4.7-7.19-10.8-12.81-18.3-16.88Z"/>
  <path class="cls-3" d="M1125.95,287.79v137.92h448.24v-137.92h-448.24ZM1205.94,354.29c-5.3,3.87-12.49,5.72-21.56,5.55v-.92c5.75,0,10.42-1.77,14.02-5.3,3.59-3.53,5.39-8.17,5.39-13.92,0-4.48-.87-8.45-2.62-11.92-1.75-3.47-4.2-6.11-7.36-7.92-3.16-1.81-7.99-2.71-14.48-2.71h-6.47v77.63c0,4.39.49,7.01,1.48,7.85.99.84,2.85,1.26,5.61,1.26v.92h-23.97v-.92c4.27,0,6.41-1.95,6.41-5.85v-75.11c0-3.2-.41-5.32-1.23-6.37-.82-1.05-2.55-1.57-5.17-1.57v-.92h25.87c9.2,0,15.88,1.03,20.05,3.09,4.17,2.06,7.21,4.62,9.12,7.68,1.91,3.06,2.87,7.11,2.87,12.12,0,7.69-2.65,13.47-7.95,17.33ZM1246.42,315c-1.19-.12-2.52.06-3.97.55-1.46.49-2.32,1.21-2.59,2.15-.27.94-.4,3.18-.4,6.71v69.63c0,3.78.16,6.08.46,6.93.31.84.9,1.54,1.79,2.09.88.55,2.45.83,4.71.83v.92h-24.21v-.92c3.04,0,4.93-.58,5.67-1.75.74-1.17,1.11-3.83,1.11-7.97v-68.95c0-4.31-.41-7.13-1.23-8.46-.82-1.33-2.67-1.92-5.54-1.75v-.92h24.21v.92ZM1347.58,315c-2.67.08-4.52.65-5.54,1.69-1.03,1.05-1.54,3.26-1.54,6.62v82.62l-72.39-77.08v67.1c0,2.13.16,3.71.49,4.74.33,1.03.8,1.72,1.42,2.09.62.37,2.16.74,4.62,1.11v.92h-17.44v-.92c3.12,0,5.06-.55,5.82-1.66.76-1.11,1.14-3.76,1.14-7.94v-61.38c0-5.38-.75-9.77-2.25-13.17-1.5-3.41-4.96-4.99-10.38-4.74v-.92h17.07l68.01,72.42v-64.05c0-3.45-.62-5.55-1.85-6.31s-2.81-1.14-4.74-1.14v-.92h17.56v.92ZM1445.59,374.14c-2.63,0-4.38.51-5.27,1.54-.88,1.02-1.32,2.99-1.32,5.9v14.26c0,2.87.38,4.93,1.14,6.18.76,1.25,2.15,1.88,4.16,1.88h1.29v.92h-36.59c-7.02,0-13.18-.76-18.45-2.28-5.28-1.52-10.66-4.4-16.14-8.66s-9.92-9.54-13.31-15.86c-3.39-6.32-5.08-12.79-5.08-19.41,0-7.23,2.13-14.44,6.38-21.62,4.25-7.19,10.3-13.03,18.14-17.53,7.84-4.5,16.74-6.75,26.68-6.75,8.91,0,18.34,1.97,28.28,5.91l3.76,10.47h-.91c-3.16-4.02-7.48-7.36-12.96-10.01-5.48-2.65-11.59-3.97-18.32-3.97-11.7,0-21.28,4.41-28.75,13.21-7.47,8.81-11.21,19.74-11.21,32.81,0,5.42.62,10.26,1.85,14.51s3.54,8.44,6.93,12.57c3.39,4.13,7.02,7.17,10.91,9.12,3.88,1.95,8.22,3.31,13.03,4.07,4.81.76,8.62,1.1,11.46,1.02l4.87-.12c5.5-.2,8.94-.72,10.32-1.54,1.38-.82,2.06-2.92,2.06-6.28v-13.74c0-2.67-.55-4.47-1.66-5.39-1.11-.92-2.69-1.32-4.74-1.2v-.92h23.47v.92ZM1532.03,390.96c-9.36,10.19-21.79,15.28-37.27,15.28-12.57,0-22.86-4.11-30.86-12.32-8.01-8.21-12.01-18.07-12.01-29.57,0-7.76,1.93-15.73,5.79-23.9,3.86-8.17,9.67-14.84,17.44-19.99,7.76-5.15,16.96-7.73,27.6-7.73,12.73,0,23.14,3.87,31.23,11.61,8.09,7.74,12.14,17.4,12.14,28.99,0,14.91-4.68,27.46-14.05,37.64Z"/>
</svg>